HIERARCHY
ROOT Hips
{
  OFFSET 5.70366 102.999 -1.77653
  CHANNELS 6 Xposition Yposition Zposition Zrotation Xrotation Yrotation
  JOINT RightUpLeg
  {
    OFFSET -8.9458 -8.66707 0.101652
    CHANNELS 3 Zrotation Xrotation Yrotation
    JOINT RightLeg
    {
      OFFSET 0 -44.4227 1.3727
      CHANNELS 3 Zrotation Xrotation Yrotation
      JOINT RightFoot
      {
        OFFSET 0.253549 -42.0924 -1.46059
        CHANNELS 3 Zrotation Xrotation Yrotation
        JOINT RightToes
        {
          OFFSET 0.04 -4.41509 8.4991
          CHANNELS 3 Zrotation Xrotation Yrotation
          End Site
          {
            OFFSET -0.08 -0.137448 9.77979
          }
        }
      }
    }
  }
  JOINT Spine
  {
    OFFSET 0 11.8905 0
    CHANNELS 3 Zrotation Xrotation Yrotation
    JOINT Spine1
    {
      OFFSET 0 25.6574 0.127663
      CHANNELS 3 Zrotation Xrotation Yrotation
      JOINT HEad
      {
        OFFSET 0 8.73416 0.011341
        CHANNELS 3 Zrotation Xrotation Yrotation
        End Site
        {
          OFFSET -0.29 12.7742 2.51395
        }
      }
      JOINT LeftShoulder1
      {
        OFFSET 8.99 -0.362252 -0.22
        CHANNELS 3 Zrotation Xrotation Yrotation
        JOINT LeftArm
        {
          OFFSET 10.2827 -0.00337999 0.322123
          CHANNELS 3 Zrotation Xrotation Yrotation
          JOINT LeftForeArm
          {
            OFFSET 26.2597 0.099144 -1.42434
            CHANNELS 3 Zrotation Xrotation Yrotation
            JOINT LeftHand
            {
              OFFSET 22.0902 0.085362 1.02216
              CHANNELS 3 Zrotation Xrotation Yrotation
              End Site
              {
                OFFSET 13.419 -0.6 1.50291
              }
            }
          }
        }
      }
      JOINT RightShoulder
      {
        OFFSET -8.99 -0.362252 -0.22
        CHANNELS 3 Zrotation Xrotation Yrotation
        JOINT RightArm
        {
          OFFSET -10.2827 -0.00338 0.322123
          CHANNELS 3 Zrotation Xrotation Yrotation
          JOINT RightForeArm
          {
            OFFSET -26.364 0.099144 -1.42434
            CHANNELS 3 Zrotation Xrotation Yrotation
            JOINT RightHand
            {
              OFFSET -22.0324 0.085362 1.02216
              CHANNELS 3 Zrotation Xrotation Yrotation
              End Site
              {
                OFFSET -13.3284 -0.6 1.50291
              }
            }
          }
        }
      }
    }
  }
  JOINT LeftUpLeg
  {
    OFFSET 8.9458 -8.66707 0.101652
    CHANNELS 3 Zrotation Xrotation Yrotation
    JOINT LeftLeg
    {
      OFFSET 0 -44.4227 1.3727
      CHANNELS 3 Zrotation Xrotation Yrotation
      JOINT LeftFoot
      {
        OFFSET -0.253549 -42.0924 -1.46059
        CHANNELS 3 Zrotation Xrotation Yrotation
        JOINT LeftToes
        {
          OFFSET -0.04 -4.41509 8.4991
          CHANNELS 3 Zrotation Xrotation Yrotation
          End Site
          {
            OFFSET 0.08 -0.047448 9.77979
          }
        }
      }
    }
  }
}
MOTION
Frames:	7
Frame Time:	0.0416667
-164.485 101.514 6.70947 -0.602072 2.96151 -139.412 4.87875 -10.0054 20.8307 -1.19835 25.9059 24.7592 -4.06848 -11.166 -0.321357 0.0462048 0.000530889 0.662642 -0.554134 2.13805 -3.0484 3.05877 1.64292 -3.26863 22.4155 4.55081 -62.0344 -25.6889 -1.66173 8.89813 -56.4023 -2.88164 -18.537 0.398276 42.7686 -18.8782 4.65508 9.41558 -9.2962 37.9759 0.0358296 -4.09699 37.9574 -4.32693 7.53184 -3.535 38.7512 22.4148 -2.21086 9.80348 2.40302 4.32157 -19.2409 -11.5746 -0.209777 61.6671 -10.9114 -9.30202 -1.27566 0.510734 -1.30665e-009 8.75243e-006 -1.47158e-008 
-165.415 101.604 7.19799 -0.777222 3.02497 -143.353 3.93272 -9.89956 21.1684 -1.25463 25.3785 28.4712 -2.50585 -11.221 -0.274497 0.0462048 0.000530889 0.662642 -0.983718 2.41355 -3.2239 3.20388 1.30658 -3.50668 21.5789 5.52613 -60.9299 -25.761 -1.74912 9.1572 -56.0167 -8.64841 -17.5514 0.0674967 47.587 -17.3969 4.41966 9.4586 -8.86024 37.3691 0.0855284 -3.98901 38.584 -5.35319 7.09623 -3.95117 38.4796 22.8354 -2.45594 9.78669 2.42166 2.85734 -18.2045 -18.1013 -0.51154 60.554 -14.6266 -9.31095 -5.40753 0.201031 -1.30665e-009 8.75243e-006 -1.47158e-008 
-166.464 101.565 7.7198 -0.72199 3.15375 -148.047 3.22619 -10.1994 22.1302 -1.11448 25.1471 32.1035 -0.656113 -11.4487 -0.218873 0.0462048 0.000530889 0.662642 -1.14118 2.57628 -3.12687 3.11833 1.10467 -3.42303 20.8717 6.07601 -59.8582 -25.8196 -1.8244 9.3806 -55.6066 -15.4958 -16.4487 -0.679594 53.3266 -15.0669 3.95113 9.53792 -8.02082 37.2279 0.0392111 -4.09599 38.6853 -5.57962 6.2837 -4.41558 37.4117 23.646 -2.91369 9.75321 2.57986 2.09987 -16.3893 -23.1308 -0.720934 57.4957 -18.6335 -8.50515 -8.61511 -0.0356165 -1.30665e-009 8.75243e-006 -1.47158e-008 
-167.587 101.36 8.29595 -0.413966 3.21474 -154.231 2.94633 -11.1914 24.7553 -0.692762 25.3747 35.678 1.55407 -11.9008 -0.14128 0.0462048 0.000530889 0.662642 -0.703403 2.34602 -2.47099 2.17593 1.33437 -2.60256 20.4274 6.49648 -58.6373 -25.5787 -1.8557 9.51903 -55.3405 -22.4493 -15.254 -1.31741 58.7812 -12.1474 3.33457 9.62948 -7.0334 37.467 0.0173105 -4.1439 38.5151 -5.4641 5.53544 -4.6376 36.825 24.1211 -3.24342 9.71841 3.21521 2.29288 -14.0815 -25.056 -0.926762 52.6708 -23.7792 -7.79702 -9.37531 -0.0779855 -1.30665e-009 8.75243e-006 -1.47158e-008 
-168.793 101.127 9.0915 -0.0825162 3.08061 -160.712 2.71625 -12.5887 28.0476 -0.129226 25.4795 38.837 4.1284 -12.331 -0.0317028 0.0462048 0.000530889 0.662642 -0.566418 2.23847 -1.97603 1.21399 1.50545 -1.96266 19.9833 7.10249 -56.9276 -25.7374 -1.98956 9.90553 -54.1831 -26.8742 -13.7195 -1.93791 61.3544 -8.85011 2.92662 9.68804 -6.15039 37.6039 0.122664 -3.90338 38.5712 -6.48411 5.23688 -4.87768 37.787 24.0049 -3.05048 9.7228 3.77007 2.23655 -12.1043 -25.1793 -1.03478 48.0784 -27.3855 -6.66821 -8.50422 -0.0167016 -1.30665e-009 8.75243e-006 -1.47158e-008 
-170.098 100.889 10.2215 0.182964 2.96161 -166.738 2.56081 -14.0488 31.5823 0.482559 25.3277 41.2763 6.43372 -12.3995 0.0671892 0.0462048 0.000530889 0.662642 -1.15166 2.73926 -1.80685 0.878142 1.45394 -1.79872 19.429 7.31805 -54.941 -26.3009 -2.14141 10.2661 -52.7078 -29.1062 -12.0735 -2.84669 61.908 -5.50939 2.82041 9.71613 -5.0452 37.5071 0.210286 -3.70454 38.6789 -7.79383 5.13862 -4.95855 38.2827 23.8435 -2.97617 9.72929 3.72226 1.65243 -10.7237 -24.1657 -0.993238 45.8938 -27.6464 -4.76072 -10.0217 -0.0561389 -1.30665e-009 8.75243e-006 -1.47158e-008 
-171.448 100.575 11.5401 0.435998 3.03822 -172.828 2.61407 -15.528 34.6148 0.901991 25.0611 44.388 8.74607 -12.1309 0.145231 0.0462048 0.000530889 0.662642 -2.23676 3.60246 -1.58092 0.851165 1.49175 -1.64216 18.8672 7.02826 -53.0484 -26.5586 -2.16829 10.2983 -52.0133 -30.8714 -10.4779 -3.24842 63.2363 -3.17017 2.76721 9.7385 -3.89342 37.5392 0.213451 -3.69764 38.2847 -7.21522 4.8542 -4.26521 36.2481 23.7852 -3.67215 9.68486 3.28303 1.15688 -8.91967 -21.0179 -0.833477 44.5592 -24.8863 -1.91167 -13.9781 -0.0371689 -1.30665e-009 8.75243e-006 -1.47158e-008 
